<?xml version="1.0" encoding="UTF-8" standalone="no"?><!DOCTYPE svg PUBLIC "-//W3C//DTD SVG 1.1//EN" "http://www.w3.org/Graphics/SVG/1.1/DTD/svg11.dtd"><svg width="100%" height="100%" viewBox="0 0 333 89" version="1.1" xmlns="http://www.w3.org/2000/svg" xmlns:xlink="http://www.w3.org/1999/xlink" xml:space="preserve" xmlns:serif="http://www.serif.com/" style="fill-rule:evenodd;clip-rule:evenodd;stroke-linejoin:round;stroke-miterlimit:2;"><rect id="Artboard2" x="0" y="0" width="332.001" height="89" style="fill:none;"/><clipPath id="_clip1"><rect x="0" y="0" width="332.001" height="89"/></clipPath><g clip-path="url(#_clip1)"><g><g id="Artboard1"><rect x="0" y="1" width="333" height="88.559" style="fill:none;"/><g><clipPath id="_clip2"><rect x="0" y="1" width="333" height="88.559"/></clipPath><g clip-path="url(#_clip2)"><g><g><path d="M37.149,60.288l0.46,-1.65c2.98,-16.11 5.67,-32.29 6.85,-48.67c0.75,-2.89 8.23,-4.12 9.33,-1.46c0.45,1.1 -0.67,4.98 -0.91,6.37c-3.39,19.89 -5.74,39.84 -8.2,59.86c-0.25,2.06 -0.83,8.5 -2.01,9.8c-2.69,2.96 -6.19,2 -7.84,-1.39l-16.69,-56.25l-7.98,57.96c-2.19,5.06 -8.89,6.23 -9.16,-0.66c4.33,-21.01 7.01,-42.33 10.93,-63.42c0.69,-3.7 1.27,-8.18 2.29,-11.73c0.51,-1.77 1.27,-3.16 3.28,-3.36c4.37,-0.42 5.69,3.98 6.68,7.33c2.86,9.67 4.78,19.84 7.48,29.59c1.65,5.95 3.67,11.77 5.48,17.67l0.01,0.01Z" style="fill:#fff;fill-rule:nonzero;"/></g><g><path d="M102.219,68.448c-1.9,5.74 -2.44,11.83 -3.79,17.7c-0.15,0.66 -0.31,1.82 -0.6,2.35c-1.17,2.09 -7.22,2.04 -6.9,-1.18l13.96,-79.19c1.28,-6.08 7,-7.55 10.28,-1.86c0.98,1.7 1.41,3.8 1.86,5.7c2.28,9.58 3.72,20.26 5.38,30.03c2.45,14.39 4.75,28.85 6.87,43.28c-1.55,3.88 -6.78,3.81 -7.87,-0.41l-2.8,-18.22l-16.39,1.81l0,-0.01Zm15.27,-8.53l-7.37,-39.84l-6.83,41.5l14.2,-1.66Z" style="fill:#fff;fill-rule:nonzero;"/></g><g><path d="M70.889,13.273c-1.532,9.964 -1.411,20.094 -2.322,30.115c4.109,0.854 8.356,-0.275 12.461,-0.08c2.453,0.119 5.141,0.973 6.015,3.535c0.661,1.937 0.016,4.141 -2.177,4.496c-2.861,0.47 -6.141,-0.002 -9.022,0.008c-2.28,0.008 -4.558,0.165 -6.838,0.153c-0.41,-0.001 -1.077,-0.338 -1.29,0.007l-3.237,25.533c1.821,0.052 3.624,0.134 5.453,0.086c3.299,-0.099 11.703,-1.415 13.452,2.35c0.597,1.278 0.253,2.545 -0.686,3.555c-1.741,1.897 -3.183,1.317 -5.43,1.484c-5.862,0.433 -14.013,1.423 -19.614,-0.45c-1.541,-0.518 -2.139,-0.906 -2.137,-2.686c0.05,-11.033 3.513,-23.819 4.79,-34.988c1.277,-11.169 1.364,-22.333 2.863,-33.397c0.181,-1.374 0.55,-5.253 1.312,-6.159c0.195,-0.234 0.451,-0.44 0.728,-0.565c0.92,0.011 2.014,-0.292 2.874,-0.33c4.246,-0.229 9.772,-0.484 14.007,-0.293c1.502,0.069 5.253,0.56 5.994,2.035c0.741,1.475 -0.501,5.212 -2.194,5.587c-2.091,0.464 -5.804,-0.129 -8.065,-0.172c-2.261,-0.033 -4.612,-0.024 -6.919,0.145l-0.019,0.03Z" style="fill:#fff;fill-rule:nonzero;"/></g><g><path d="M140.679,3.557c1.45,-0.24 4.2,-0.17 5.39,0.79c1.56,1.27 1.37,4.351 1.31,6.231c-0.41,11.3 -0.83,22.61 -1.12,33.93c-0.29,11.31 -0.23,22.61 -0.33,33.9c0.26,1.23 2.17,0.93 3.2,0.88c4.84,-0.23 9.66,-1.93 14.56,-1.48c4.27,0.39 5.62,4.43 1.57,6.36l-25.92,3.4c-1.13,0.21 -2.32,-0.3 -2.59,-1.46c-0.34,-1.42 -0.11,-5.1 -0.09,-6.75c0.31,-18.02 1.71,-36.03 2.21,-54.04c0.17,-6.25 -0.89,-12.7 -0.55,-18.63c0.1,-1.8 0.17,-2.771 2.36,-3.141l0,0.01Z" style="fill:#fff;fill-rule:nonzero;"/></g></g><g><rect x="180.667" y="79.333" width="7.667" height="7.667" style="fill:#ebda7c;"/><rect x="173" y="79.333" width="15.333" height="7.667" style="fill:#e2d173;"/><rect x="180.667" y="71.667" width="15.333" height="15.333" style="fill:#f2e183;"/><rect x="180.667" y="71.667" width="7.667" height="7.667" style="fill:#e4d375;"/><rect x="252.419" y="56" width="7.667" height="8.667" style="fill:#ff7905;"/><rect x="245.919" y="63.667" width="20.667" height="16.667" style="fill:#ff5601;"/><rect x="259.463" y="63.667" width="7.667" height="8.667" style="fill:#fe7200;"/><rect x="252.419" y="63.667" width="7.667" height="8.667" style="fill:#fe3200;"/><rect x="188.333" y="79.333" width="7.667" height="7.667" style="fill:#e4d375;"/></g><g><g><path d="M318.731,61.19c0.351,0.029 0.144,-0.396 0.112,-0.594c-2.589,-16.243 -3.299,-33.624 -6.287,-50.092c-0.363,-5.74 7.107,-7.67 8.586,-0.26c0.298,1.496 0.167,3.537 0.356,5.142c2.295,18.639 4.386,38.854 7.568,57.376c0.608,3.573 2.026,8.112 2.182,11.599c0.209,4.916 -5.021,5.004 -7.488,1.847l-31.689,-58.338l7.696,58.914c-1.163,6.858 -7.859,5.78 -9.045,-0.677c-1.065,-5.77 -0.953,-12.317 -1.501,-18.203c-1.446,-15.713 -3.591,-31.366 -4.927,-47.092c-0.295,-3.453 -0.935,-8.085 -0.905,-11.398c0.03,-4.313 4.596,-3.521 6.88,-1.419c1.955,1.802 5.465,9.329 6.889,12.087c3.656,7.083 6.967,14.346 10.662,21.397c3.483,6.658 7.31,13.125 10.912,19.719l-0,-0.01Z" style="fill:#fff;fill-rule:nonzero;"/></g><g><path d="M238.768,5.597c4.27,-0.06 4.87,2.551 5.21,5.851c1.87,18.64 -2.11,40.53 3.23,58.56c1.57,5.32 6.45,13.9 12.99,8.93c7.04,-5.36 7.07,-24.61 7.39,-32.82c0.37,-9.64 0.81,-19.68 -0.18,-29.32c-0.28,-2.76 -1.62,-6.251 -1.07,-8.731c0.32,-1.44 3.02,-2.03 4.27,-1.96c5,0.3 4.95,2.771 5.28,6.631c0.9,10.54 0.61,21.34 0.36,31.9c-0.34,14.72 0.77,47.38 -22.53,42.84c-15.45,-3.01 -15.93,-21.05 -16.93,-33.61c-1.04,-13.14 -1.62,-26.3 -1.84,-39.48c-0.04,-2.52 -0.44,-3.451 -0.2,-6.001c0.19,-2 2.21,-2.77 4.02,-2.8l0,0.01Z" style="fill:#fff;fill-rule:nonzero;"/></g><g><path d="M206.448,10.248l2.24,19.53l15.75,0.07c3.15,0.78 5.05,5.31 1.06,6.51c-4.6,1.38 -12.12,-0.06 -16.57,0.45c-1.22,0.14 -1.05,0.7 -1.01,1.76c0.27,6.5 1.42,13.35 1.84,19.92c0.29,4.52 0.36,9.12 0.55,13.66c0.15,3.73 0.72,8.11 0.38,11.8c-0.27,3 -3.67,3.95 -6.14,2.8c-1.56,-0.73 -1.73,-1.82 -1.96,-3.39c-1.03,-6.98 -0.44,-14.83 -0.75,-21.93c-0.74,-16.62 -3.91,-33.32 -4.44,-49.79c-0.05,-1.43 -0.24,-5.17 0.44,-6.22c1.42,-2.19 7.59,-1.5 9.99,-1.63c3.67,-0.2 14.62,-1.59 17.57,0.56c1.11,0.81 2.15,2.93 1.46,4.23c-0.94,1.75 -8.98,1.28 -10.72,1.68l-9.69,0l0,-0.01Z" style="fill:#fff;fill-rule:nonzero;"/></g></g></g></g></g></g></g></svg>