{
    "asset" : {
        "generator" : "Khronos glTF Blender I/O v1.5.17",
        "version" : "2.0"
    },
    "scene" : 0,
    "scenes" : [
        {
            "name" : "Scene",
            "nodes" : [
                0,
                1,
                2,
                3,
                4,
                5
            ]
        }
    ],
    "nodes" : [
        {
            "mesh" : 0,
            "name" : "R",
            "rotation" : [
                0.7071068286895752,
                0,
                0,
                0.7071068286895752
            ],
            "translation" : [
                -0.2822120785713196,
                -0.11989152431488037,
                0.07925795763731003
            ]
        },
        {
            "mesh" : 1,
            "name" : "7",
            "rotation" : [
                0.7071068286895752,
                0,
                0,
                0.7071068286895752
            ],
            "translation" : [
                0.154738187789917,
                0.21841154992580414,
                0.08237425237894058
            ]
        },
        {
            "mesh" : 2,
            "name" : "R.002",
            "rotation" : [
                0.7071068286895752,
                0,
                0,
                0.7071068286895752
            ],
            "translation" : [
                0.154738187789917,
                0.030165035277605057,
                0.08237423747777939
            ]
        },
        {
            "mesh" : 3,
            "name" : "R.003",
            "rotation" : [
                0.7071068286895752,
                0,
                0,
                0.7071068286895752
            ],
            "translation" : [
                0.14204567670822144,
                -0.11933624744415283,
                0.08237423002719879
            ]
        },
        {
            "name" : "Light",
            "rotation" : [
                0.16907575726509094,
                0.7558803558349609,
                -0.27217137813568115,
                0.570947527885437
            ],
            "translation" : [
                4.076245307922363,
                5.903861999511719,
                -1.0054539442062378
            ]
        },
        {
            "name" : "Camera",
            "rotation" : [
                0.483536034822464,
                0.33687159419059753,
                -0.20870360732078552,
                0.7804827094078064
            ],
            "translation" : [
                7.358891487121582,
                4.958309173583984,
                6.925790786743164
            ]
        }
    ],
    "materials" : [
        {
            "doubleSided" : true,
            "name" : "Material.001",
            "pbrMetallicRoughness" : {
                "baseColorFactor" : [
                    0,
                    1,
                    1,
                    1
                ],
                "metallicFactor" : 0,
                "roughnessFactor" : 0.5
            }
        }
    ],
    "meshes" : [
        {
            "name" : "Text",
            "primitives" : [
                {
                    "attributes" : {
                        "POSITION" : 0,
                        "NORMAL" : 1,
                        "TEXCOORD_0" : 2
                    },
                    "indices" : 3,
                    "material" : 0
                }
            ]
        },
        {
            "name" : "Text.001",
            "primitives" : [
                {
                    "attributes" : {
                        "POSITION" : 4,
                        "NORMAL" : 5,
                        "TEXCOORD_0" : 6
                    },
                    "indices" : 7,
                    "material" : 0
                }
            ]
        },
        {
            "name" : "Text.002",
            "primitives" : [
                {
                    "attributes" : {
                        "POSITION" : 8,
                        "NORMAL" : 9,
                        "TEXCOORD_0" : 10
                    },
                    "indices" : 11,
                    "material" : 0
                }
            ]
        },
        {
            "name" : "Text.003",
            "primitives" : [
                {
                    "attributes" : {
                        "POSITION" : 12,
                        "NORMAL" : 13,
                        "TEXCOORD_0" : 14
                    },
                    "indices" : 15,
                    "material" : 0
                }
            ]
        }
    ],
    "accessors" : [
        {
            "bufferView" : 0,
            "componentType" : 5126,
            "count" : 1361,
            "max" : [
                0.4149706959724426,
                0.08999998867511749,
                0
            ],
            "min" : [
                0.04242842644453049,
                -0.08999998867511749,
                -0.505691647529602
            ],
            "type" : "VEC3"
        },
        {
            "bufferView" : 1,
            "componentType" : 5126,
            "count" : 1361,
            "type" : "VEC3"
        },
        {
            "bufferView" : 2,
            "componentType" : 5126,
            "count" : 1361,
            "type" : "VEC2"
        },
        {
            "bufferView" : 3,
            "componentType" : 5123,
            "count" : 2436,
            "type" : "SCALAR"
        },
        {
            "bufferView" : 4,
            "componentType" : 5126,
            "count" : 449,
            "max" : [
                0.11898533254861832,
                0.04999999701976776,
                0
            ],
            "min" : [
                0.009877599775791168,
                -0.04999999701976776,
                -0.16417251527309418
            ],
            "type" : "VEC3"
        },
        {
            "bufferView" : 5,
            "componentType" : 5126,
            "count" : 449,
            "type" : "VEC3"
        },
        {
            "bufferView" : 6,
            "componentType" : 5126,
            "count" : 449,
            "type" : "VEC2"
        },
        {
            "bufferView" : 7,
            "componentType" : 5123,
            "count" : 768,
            "type" : "SCALAR"
        },
        {
            "bufferView" : 8,
            "componentType" : 5126,
            "count" : 83,
            "max" : [
                0.12398090213537216,
                0.04999999701976776,
                0
            ],
            "min" : [
                0.004314354155212641,
                -0.04999999701976776,
                -0.1671244502067566
            ],
            "type" : "VEC3"
        },
        {
            "bufferView" : 9,
            "componentType" : 5126,
            "count" : 83,
            "type" : "VEC3"
        },
        {
            "bufferView" : 10,
            "componentType" : 5126,
            "count" : 83,
            "type" : "VEC2"
        },
        {
            "bufferView" : 11,
            "componentType" : 5123,
            "count" : 168,
            "type" : "SCALAR"
        },
        {
            "bufferView" : 12,
            "componentType" : 5126,
            "count" : 877,
            "max" : [
                0.12636515498161316,
                0.04999999701976776,
                0
            ],
            "min" : [
                0.016462665051221848,
                -0.04999999701976776,
                -0.12329968810081482
            ],
            "type" : "VEC3"
        },
        {
            "bufferView" : 13,
            "componentType" : 5126,
            "count" : 877,
            "type" : "VEC3"
        },
        {
            "bufferView" : 14,
            "componentType" : 5126,
            "count" : 877,
            "type" : "VEC2"
        },
        {
            "bufferView" : 15,
            "componentType" : 5123,
            "count" : 1668,
            "type" : "SCALAR"
        }
    ],
    "bufferViews" : [
        {
            "buffer" : 0,
            "byteLength" : 16332,
            "byteOffset" : 0
        },
        {
            "buffer" : 0,
            "byteLength" : 16332,
            "byteOffset" : 16332
        },
        {
            "buffer" : 0,
            "byteLength" : 10888,
            "byteOffset" : 32664
        },
        {
            "buffer" : 0,
            "byteLength" : 4872,
            "byteOffset" : 43552
        },
        {
            "buffer" : 0,
            "byteLength" : 5388,
            "byteOffset" : 48424
        },
        {
            "buffer" : 0,
            "byteLength" : 5388,
            "byteOffset" : 53812
        },
        {
            "buffer" : 0,
            "byteLength" : 3592,
            "byteOffset" : 59200
        },
        {
            "buffer" : 0,
            "byteLength" : 1536,
            "byteOffset" : 62792
        },
        {
            "buffer" : 0,
            "byteLength" : 996,
            "byteOffset" : 64328
        },
        {
            "buffer" : 0,
            "byteLength" : 996,
            "byteOffset" : 65324
        },
        {
            "buffer" : 0,
            "byteLength" : 664,
            "byteOffset" : 66320
        },
        {
            "buffer" : 0,
            "byteLength" : 336,
            "byteOffset" : 66984
        },
        {
            "buffer" : 0,
            "byteLength" : 10524,
            "byteOffset" : 67320
        },
        {
            "buffer" : 0,
            "byteLength" : 10524,
            "byteOffset" : 77844
        },
        {
            "buffer" : 0,
            "byteLength" : 7016,
            "byteOffset" : 88368
        },
        {
            "buffer" : 0,
            "byteLength" : 3336,
            "byteOffset" : 95384
        }
    ],
    "buffers" : [
        {
            "byteLength" : 98720,
            "uri" : "data:application/octet-stream;base64,"
        }
    ]
}
