<svg version="1.1" viewBox="0.0 0.0 200.35958005249344 192.53805774278214" fill="none" stroke="none" stroke-linecap="square" stroke-miterlimit="10" xmlns:xlink="http://www.w3.org/1999/xlink" xmlns="http://www.w3.org/2000/svg"><clipPath id="p.0"><path d="m0 0l200.35957 0l0 192.53806l-200.35957 0l0 -192.53806z" clip-rule="nonzero"/></clipPath><g clip-path="url(#p.0)"><path fill="#000000" fill-opacity="0.0" d="m0 0l200.35957 0l0 192.53806l-200.35957 0z" fill-rule="evenodd"/><path fill="#000000" fill-opacity="0.0" d="m7.8055525 -46.897057l170.07874 0l0 279.24408l-170.07874 0z" fill-rule="evenodd"/><path fill="#00ffff" d="m162.44618 167.92694l-36.765633 0l0 -70.92187q0 -22.515625 -2.359375 -29.125q-2.34375 -6.609375 -7.65625 -10.265625q-5.296875 -3.671875 -12.75 -3.671875q-9.5625 0 -17.15625 5.234375q-7.578125 5.234375 -10.390625 13.875q-2.8125 8.640625 -2.8125 31.9375l0 62.937492l-36.781246 0l0 -138.96875l34.156246 0l0 20.406252q18.1875 -23.546877 45.8125 -23.546877q12.15625 0 22.234383 4.390625q10.078125 4.375002 15.25 11.187502q5.171875 6.796875 7.1875 15.4375q2.03125 8.625 2.03125 24.71875l0 86.37499z" fill-rule="nonzero"/></g></svg>