<svg width="201" height="193" viewBox="0 0 201 193" fill="none" xmlns="http://www.w3.org/2000/svg">
<g clip-path="url(#clip0_0_1)">
<mask id="mask0_0_1" style="mask-type:luminance" maskUnits="userSpaceOnUse" x="0" y="0" width="201" height="193">
<path d="M0 0H200.36V192.538H0V0Z" fill="white"/>
</mask>
<g mask="url(#mask0_0_1)">
<path d="M-0.162262 191.624V-0.220108H66.7127C83.8065 -0.220108 96.0148 1.50385 103.338 4.95177C110.671 8.39968 116.692 14.3788 121.4 22.8893C126.119 31.3893 128.478 41.5716 128.478 53.4361C128.478 68.4361 124.879 80.5195 117.681 89.6861C110.484 98.8424 100.254 104.598 86.994 106.952C93.7961 111.837 99.4211 117.181 103.869 122.983C108.317 128.785 114.379 139.191 122.056 154.202L141.166 191.624H103.353L80.3221 149.874C72.0304 134.78 66.4002 125.337 63.4315 121.546C60.4732 117.754 57.3325 115.139 54.0096 113.702C50.6971 112.254 45.3794 111.53 38.0565 111.53H31.5096V191.624H-0.162262ZM31.5096 80.9205H55.0565C69.4523 80.9205 78.6138 80.2903 82.5409 79.0299C86.4679 77.7591 89.6502 75.207 92.0877 71.3736C94.5357 67.5299 95.7596 62.4205 95.7596 56.0455C95.7596 49.9414 94.5357 45.0351 92.0877 41.3268C89.6502 37.6184 86.3377 35.0664 82.1502 33.6705C79.1815 32.7122 70.5877 32.233 56.369 32.233H31.5096V80.9205Z" fill="url(#paint0_linear_0_1)"/>
<path d="M146.406 -0.7341H201.156V13.7346C196.438 17.9951 192.636 22.3909 189.75 26.9221C186.219 32.443 183.438 38.6096 181.406 45.4221C179.781 50.7034 178.641 57.5367 177.985 65.9221H156.766C158.349 54.0992 160.646 44.6305 163.656 37.5159C166.677 30.3909 170.636 23.7867 175.531 17.7034H146.406V-0.7341Z" fill="url(#paint1_linear_0_1)"/>
<path d="M173.946 125.139H142.071V108.248L174.931 69.201H192.853V107.904H200.759V125.139H192.853V136.92H173.946V125.139ZM173.946 107.904V94.9042L162.884 107.904H173.946Z" fill="url(#paint2_linear_0_1)"/>
<path d="M146.403 140.864H166.356V144.927C166.773 144.406 168.351 143.427 171.091 141.989C173.83 140.552 177.143 139.833 181.028 139.833C186.382 139.833 190.601 141.458 193.684 144.708C196.778 147.948 198.325 152.823 198.325 159.333V190.161H177.091V163.239C177.091 160.844 176.726 159.239 175.997 158.427C175.278 157.614 174.231 157.208 172.856 157.208C171.315 157.208 170.044 157.818 169.044 159.036C168.054 160.245 167.559 162.703 167.559 166.411V190.161H146.403V140.864Z" fill="url(#paint3_linear_0_1)"/>
</g>
</g>
<defs>
<linearGradient id="paint0_linear_0_1" x1="70.5018" y1="-0.220108" x2="70.5018" y2="191.624" gradientUnits="userSpaceOnUse">
<stop stop-color="#FF0000"/>
<stop offset="0.16" stop-color="#FF7F00"/>
<stop offset="0.33" stop-color="#FFFF00"/>
<stop offset="0.5" stop-color="#00FF00"/>
<stop offset="0.66" stop-color="#00FFFF"/>
<stop offset="0.83" stop-color="#0000FF"/>
<stop offset="1" stop-color="#FF00FF"/>
</linearGradient>
<linearGradient id="paint1_linear_0_1" x1="173.781" y1="-0.7341" x2="173.781" y2="65.9221" gradientUnits="userSpaceOnUse">
<stop stop-color="#5BCEFA"/>
<stop offset="0.5" stop-color="white"/>
<stop offset="1" stop-color="#F5A9B8"/>
</linearGradient>
<linearGradient id="paint2_linear_0_1" x1="171.415" y1="69.201" x2="171.415" y2="136.92" gradientUnits="userSpaceOnUse">
<stop stop-color="#FCF434"/>
<stop offset="0.5" stop-color="white"/>
<stop offset="1" stop-color="#9C59D1"/>
</linearGradient>
<linearGradient id="paint3_linear_0_1" x1="172.364" y1="139.833" x2="172.364" y2="190.161" gradientUnits="userSpaceOnUse">
<stop stop-color="#D52D00"/>
<stop offset="0.5" stop-color="white"/>
<stop offset="1" stop-color="#A30262"/>
</linearGradient>
<clipPath id="clip0_0_1">
<rect width="200.36" height="192.538" fill="white"/>
</clipPath>
</defs>
</svg>
