<svg version="1.1" viewBox="0.0 0.0 200.35958005249344 192.53805774278214" fill="none" stroke="none" stroke-linecap="square" stroke-miterlimit="10" xmlns:xlink="http://www.w3.org/1999/xlink" xmlns="http://www.w3.org/2000/svg"><clipPath id="p.0"><path d="m0 0l200.35957 0l0 192.53806l-200.35957 0l0 -192.53806z" clip-rule="nonzero"/></clipPath><g clip-path="url(#p.0)"><path fill="#000000" fill-opacity="0.0" d="m0 0l200.35957 0l0 192.53806l-200.35957 0z" fill-rule="evenodd"/><path fill="#000000" fill-opacity="0.0" d="m15.141628 -23.199316l170.07874 0l0 279.24408l-170.07874 0z" fill-rule="evenodd"/><path fill="#00ffff" d="m40.23538 191.6247l0 -191.84375l66.875 0q25.640633 0 36.625008 5.171875q11.0 5.1718755 18.0625 17.9375q7.078125 12.750002 7.078125 30.546877q0 22.499996 -10.796875 36.249996q-10.796875 13.734375 -30.687508 17.265625q10.203133 7.328125 16.875008 16.03125q6.671875 8.703133 18.1875 31.218758l19.109375 37.421875l-37.8125 0l-23.031258 -41.75q-12.4375 -22.640633 -16.890625 -28.328133q-4.4375 -5.6875 -9.421875 -7.84375q-4.96875 -2.171875 -15.953125 -2.171875l-6.546875 0l0 80.09376l-31.671871 0zm31.671871 -110.70313l23.546875 0q21.59375 0 27.484375 -1.890625q5.8906326 -1.90625 9.546883 -7.65625q3.671875 -5.765625 3.671875 -15.328121q0 -9.15625 -3.671875 -14.71875q-3.65625 -5.5625 -9.937508 -7.65625q-4.453125 -1.4375 -25.78125 -1.4375l-24.859375 0l0 48.687496z" fill-rule="nonzero"/></g></svg>